<?xml version="1.0" standalone="no"?>
<!DOCTYPE svg PUBLIC "-//W3C//DTD SVG 20010904//EN"
 "http://www.w3.org/TR/2001/REC-SVG-20010904/DTD/svg10.dtd">
<svg version="1.0" xmlns="http://www.w3.org/2000/svg"
 width="512.000000pt" height="512.000000pt" viewBox="0 0 512.000000 512.000000"
 preserveAspectRatio="xMidYMid meet">

<g transform="translate(0.000000,512.000000) scale(0.100000,-0.100000)"
fill="#ffffff" stroke="none">
<path d="M383 5105 c-182 -49 -320 -189 -368 -372 -23 -86 -23 -3860 0 -3946
48 -185 187 -324 372 -372 50 -13 299 -15 1887 -15 l1830 0 160 -159 c179
-176 234 -212 355 -233 284 -49 541 212 492 497 -25 142 -24 140 -594 712
-353 354 -531 526 -553 533 -48 16 -79 -1 -177 -98 l-87 -87 -51 52 -52 51 35
44 c334 415 400 996 168 1482 -131 275 -381 525 -658 657 -105 50 -186 79
-223 79 -64 0 -111 -82 -81 -142 15 -28 32 -39 117 -73 193 -79 300 -149 431
-279 363 -363 455 -907 233 -1371 -222 -464 -721 -738 -1229 -674 -605 74
-1060 587 -1060 1193 0 190 37 352 121 526 86 178 206 324 364 443 80 59 244
147 318 169 21 6 52 24 68 39 56 52 30 146 -45 165 -58 14 -310 -100 -449
-204 -357 -269 -556 -645 -574 -1082 -21 -545 272 -1051 753 -1298 167 -85
312 -130 489 -151 364 -44 747 67 1033 297 l44 35 51 -52 52 -51 -87 -87 c-91
-93 -112 -127 -102 -171 4 -17 102 -123 273 -295 l266 -267 -1740 2 -1740 3
-46 21 c-60 28 -125 93 -153 153 l-21 46 -3 1688 -2 1687 2360 0 2360 0 2
-1560 3 -1560 26 -25 c14 -14 41 -28 61 -31 30 -5 41 -1 69 24 l34 30 3 1794
c1 1231 -1 1809 -8 1844 -39 186 -188 340 -377 389 -84 22 -4269 21 -4350 0z
m4358 -211 c60 -28 125 -93 152 -153 18 -39 22 -69 25 -193 l4 -148 -2361 0
-2361 0 0 128 c0 83 5 146 14 176 29 94 97 166 191 198 47 16 180 17 2170 15
l2120 -2 46 -21z m-329 -3851 c256 -258 474 -484 484 -503 25 -47 25 -162 2
-206 -22 -41 -71 -90 -112 -112 -44 -23 -159 -23 -206 2 -19 10 -185 167 -367
349 l-333 331 94 96 c53 54 96 107 100 123 9 36 -17 91 -50 106 -60 27 -81 17
-186 -86 l-98 -97 -65 64 c-36 36 -65 69 -65 75 0 13 312 325 325 325 6 0 220
-210 477 -467z"/>
<path d="M605 4751 c-37 -16 -60 -51 -60 -93 0 -33 6 -45 33 -69 20 -18 43
-29 62 -29 19 0 42 11 62 29 27 24 33 36 33 70 0 67 -71 117 -130 92z"/>
<path d="M1005 4751 c-37 -16 -60 -51 -60 -93 0 -33 6 -45 33 -69 20 -18 43
-29 62 -29 19 0 42 11 62 29 27 24 33 36 33 70 0 67 -71 117 -130 92z"/>
<path d="M1405 4751 c-37 -16 -60 -51 -60 -93 0 -33 6 -45 33 -69 20 -18 43
-29 62 -29 19 0 42 11 62 29 27 24 33 36 33 70 0 67 -71 117 -130 92z"/>
<path d="M2185 4751 c-64 -27 -81 -110 -32 -158 l27 -28 1165 -3 1164 -2 33
29 c27 24 33 36 33 71 0 35 -6 47 -33 71 l-32 29 -1153 -1 c-633 0 -1161 -4
-1172 -8z"/>
<path d="M2469 3962 c-55 -50 -36 -138 35 -162 102 -33 176 96 94 165 -41 34
-88 33 -129 -3z"/>
<path d="M3651 3926 c-67 -37 -65 -143 4 -174 19 -9 140 -12 440 -12 l415 0
32 29 c27 24 33 36 33 71 0 35 -6 47 -33 71 l-32 29 -418 0 c-327 -1 -422 -4
-441 -14z"/>
<path d="M4055 3531 c-62 -26 -79 -112 -31 -159 l26 -27 229 -3 230 -3 33 29
c27 25 33 37 33 72 0 35 -6 47 -33 71 l-32 29 -218 -1 c-119 0 -226 -4 -237
-8z"/>
<path d="M2432 3361 c-112 -39 -182 -139 -182 -262 l0 -65 -40 -23 c-44 -24
-147 -121 -172 -161 l-16 -25 -55 53 c-69 64 -98 77 -144 61 -42 -13 -65 -47
-65 -94 0 -31 12 -49 91 -134 85 -93 90 -100 84 -134 l-5 -35 -100 -4 c-95 -3
-101 -4 -124 -31 -15 -18 -24 -41 -24 -63 0 -78 41 -104 163 -104 l84 0 6 -37
c6 -35 3 -40 -82 -128 -106 -110 -120 -153 -65 -209 50 -49 97 -41 175 32 l60
55 16 -24 c9 -13 45 -52 81 -87 72 -69 168 -122 267 -147 69 -18 211 -20 287
-4 95 20 211 83 287 157 38 37 73 76 79 87 10 19 14 17 64 -33 76 -74 132 -85
182 -35 19 19 26 36 26 65 0 37 -8 48 -91 134 -62 64 -89 99 -85 110 3 9 6 27
6 40 0 24 2 24 85 24 122 0 165 26 165 100 0 74 -43 100 -163 100 l-84 0 -6
43 c-6 42 -6 42 84 133 82 84 89 95 89 131 0 63 -59 111 -118 96 -15 -3 -53
-31 -85 -62 l-58 -55 -17 25 c-35 50 -88 102 -148 145 l-61 44 -5 79 c-4 67
-9 86 -37 129 -72 113 -215 159 -349 113z m162 -202 c14 -11 26 -29 26 -40 0
-17 -8 -19 -85 -19 -77 0 -85 2 -85 19 0 28 47 61 85 61 18 0 44 -9 59 -21z
m118 -296 c85 -40 151 -106 191 -191 32 -67 32 -67 32 -232 0 -165 0 -165 -32
-232 -40 -85 -106 -151 -191 -191 -63 -30 -74 -32 -177 -32 -102 0 -115 2
-175 31 -36 17 -86 52 -113 79 -88 88 -117 173 -117 345 0 172 29 257 116 344
85 85 169 117 304 113 83 -2 103 -6 162 -34z"/>
<path d="M605 1571 c-64 -27 -81 -110 -32 -158 l27 -28 248 -3 c215 -3 251 -1
278 13 69 37 71 129 4 168 -24 15 -61 17 -267 16 -131 0 -247 -4 -258 -8z"/>
<path d="M605 1171 c-64 -27 -81 -110 -32 -158 l27 -28 363 -3 c199 -2 373 0
385 3 13 3 35 18 48 32 43 46 27 121 -33 152 -26 13 -726 15 -758 2z"/>
<path d="M1660 1167 c-38 -18 -63 -77 -50 -113 16 -42 39 -63 75 -70 111 -21
159 133 58 185 -28 14 -52 14 -83 -2z"/>
</g>
</svg>
